<?xml version="1.0" standalone="no"?>
<!DOCTYPE svg PUBLIC "-//W3C//DTD SVG 20010904//EN"
 "http://www.w3.org/TR/2001/REC-SVG-20010904/DTD/svg10.dtd">
<svg version="1.0" xmlns="http://www.w3.org/2000/svg"
 width="700.000000pt" height="700.000000pt" viewBox="0 0 700.000000 700.000000"
 preserveAspectRatio="xMidYMid meet">
<metadata>
Created by potrace 1.14, written by Peter Selinger 2001-2017
</metadata>
<g transform="translate(0.000000,700.000000) scale(0.100000,-0.100000)"
fill="#000000" stroke="none">
<path d="M1749 4958 c-961 -961 -1742 -1748 -1735 -1748 6 0 201 -1 434 -1
232 0 423 -3 423 -7 1 -4 2 -659 3 -1457 l1 -1450 870 -2 c490 -1 872 2 875 7
3 4 5 396 5 870 0 706 2 863 13 868 17 6 1732 9 1733 2 1 -3 2 -394 4 -870 1
-476 3 -868 4 -872 0 -4 394 -7 874 -7 l872 0 0 1447 c-1 796 1 1452 3 1459 3
9 105 12 430 13 234 0 427 2 429 4 4 3 -3420 3429 -3468 3471 l-24 21 -1746
-1748z"/>
<path d="M4959 6361 c0 -31 0 -168 -1 -305 l0 -249 434 -434 c238 -238 435
-433 438 -433 4 0 5 1421 1 1466 -1 8 -127 11 -436 11 l-435 -1 -1 -55z"/>
</g>
</svg>
